<svg id="Layer_1" data-name="Layer 1" xmlns="http://www.w3.org/2000/svg" viewBox="0 0 15.15 14.79"><defs><style>.cls-1,.cls-2,.cls-3{fill:none;}.cls-1{stroke:#0075bc;}.cls-1,.cls-2,.cls-3,.cls-6{stroke-miterlimit:10;}.cls-1,.cls-2,.cls-6{stroke-width:0.25px;opacity:0.7;}.cls-2{stroke:#d75532;}.cls-3{stroke:#231f20;stroke-width:4px;}.cls-4{fill:#ffcc32;}.cls-4,.cls-5{opacity:0.5;}.cls-5{fill:#288a4c;}.cls-6{fill:#00a176;stroke:#00a176;}</style></defs><path class="cls-1" d="M4.63,7.31A23.6,23.6,0,0,0,6.7,10.75c1.4,1.82,2.7,3.53,4.75,4.56,1.4.69,2.91-.23,4-1.19" transform="translate(-0.4 -0.89)"/><path class="cls-1" d="M9.45,2A5.63,5.63,0,0,0,6.27,1c-.12,0-.95.15-.95.15-1.84.89-1.4,3.14-1.21,4.77" transform="translate(-0.4 -0.89)"/><path class="cls-2" d="M11.38,5c-.35,0-.82.06-1.17,0a23.62,23.62,0,0,0-4.53.87c-1.87.56-3.08.94-4,2-.34.37-1.41,1.55-1,2.83s2,1.89,2.95,2.23a8.39,8.39,0,0,0,4,.36" transform="translate(-0.4 -0.89)"/><path class="cls-3" d="M11.31,4.48" transform="translate(-0.4 -0.89)"/><path class="cls-3" d="M10.86,4.39" transform="translate(-0.4 -0.89)"/><circle class="cls-4" cx="11.84" cy="4.2" r="0.65"/><circle class="cls-5" cx="9.8" cy="1.81" r="0.66"/><polygon class="cls-6" points="9.75 12.35 9.9 12.34 9.76 12.38 9.75 12.35"/></svg>