<svg id="Layer_1" data-name="Layer 1" xmlns="http://www.w3.org/2000/svg" viewBox="0 0 208.93 97.44"><defs><style>.cls-1,.cls-2,.cls-3,.cls-8{fill:none;}.cls-1,.cls-8{stroke:#0075bc;}.cls-1,.cls-2,.cls-3,.cls-6{stroke-miterlimit:10;stroke-width:4px;}.cls-1,.cls-2,.cls-6{opacity:0.7;}.cls-2{stroke:#d75532;}.cls-3{stroke:#231f20;}.cls-4{fill:#ffcc32;}.cls-4,.cls-5{opacity:0.5;}.cls-5{fill:#288a4c;}.cls-6{fill:#00a176;stroke:#00a176;}.cls-7{fill:#0075bc;}</style></defs><path class="cls-1" d="M44,35.34a119.14,119.14,0,0,0,10.2,16.94c6.92,9,13.31,17.44,23.42,22.5,6.92,3.38,14.37-1.12,19.83-5.87" transform="translate(-21.82 -2.27)"/><path class="cls-1" d="M67.79,9.31c-5.34-3.46-9.71-4.91-15.65-5-.63,0-4.72.74-4.72.74-9,4.38-6.87,15.47-6,23.51" transform="translate(-21.82 -2.27)"/><path class="cls-2" d="M77.31,24.09c-1.72-.13-4,.3-5.76.17a112.74,112.74,0,0,0-22.33,4.27C40,31.3,34,33.18,29.33,38.36c-1.65,1.81-6.92,7.62-5.16,13.93C26,58.77,34,61.64,38.7,63.3a41.82,41.82,0,0,0,19.82,1.78" transform="translate(-21.82 -2.27)"/><path class="cls-3" d="M78,21.52" transform="translate(-21.82 -2.27)"/><path class="cls-3" d="M74.76,20.91" transform="translate(-21.82 -2.27)"/><circle class="cls-4" cx="60.67" cy="22.14" r="3.12"/><circle class="cls-5" cx="49.69" cy="10.31" r="3.26"/><polygon class="cls-6" points="49.44 62.25 50.19 62.21 49.52 62.41 49.44 62.25"/><path class="cls-7" d="M64.69,60.55V15.08h4.84V35a12.06,12.06,0,0,1,3.7-4.88A9,9,0,0,1,86,32.69q2.69,4.23,2.69,11a22.92,22.92,0,0,1-3,12.27q-3,4.92-8.3,4.92a10.13,10.13,0,0,1-2.93-.43,8.58,8.58,0,0,1-2.48-1.23,12.48,12.48,0,0,1-2.4-2.57l-.62,3.86Zm4.84-7.75A14.88,14.88,0,0,0,73.46,56a7.53,7.53,0,0,0,3.15.66,5.52,5.52,0,0,0,5.23-3.49,20.23,20.23,0,0,0,1.7-8.9,17.73,17.73,0,0,0-1.5-8,4.91,4.91,0,0,0-4.65-3,7.3,7.3,0,0,0-4,1.27,15.81,15.81,0,0,0-3.89,3.85Z" transform="translate(-21.82 -2.27)"/><path class="cls-7" d="M110.36,56.26A18.44,18.44,0,0,1,106,59.75a8.64,8.64,0,0,1-4.18,1.17,8,8,0,0,1-5.33-2.17,8,8,0,0,1-2.47-6.35,9.59,9.59,0,0,1,3.44-7.56q3.45-3,11-3h1.15V38.1a7.47,7.47,0,0,0-.53-3.25,3.64,3.64,0,0,0-1.63-1.59,6.08,6.08,0,0,0-2.77-.57,16.35,16.35,0,0,0-8.35,2.74V30.77a22.21,22.21,0,0,1,9.34-2.31,10.92,10.92,0,0,1,4.39.87,7.1,7.1,0,0,1,3.2,2.74q1.19,1.88,1.19,6V52.17a10.26,10.26,0,0,0,.32,3.16,2.67,2.67,0,0,0,.9,1.24,2.15,2.15,0,0,0,1.34.43,6.19,6.19,0,0,0,.93-.11l.35,3.11a7.37,7.37,0,0,1-3.64.92,4,4,0,0,1-2.56-1A6.21,6.21,0,0,1,110.36,56.26Zm-.71-3.06v-8l-1.58-.05a11.75,11.75,0,0,0-6.53,1.71,5.29,5.29,0,0,0-2.63,4.66,4.89,4.89,0,0,0,1.29,3.43,4,4,0,0,0,3,1.4,7.14,7.14,0,0,0,3.17-.79A13.69,13.69,0,0,0,109.65,53.2Z" transform="translate(-21.82 -2.27)"/><path class="cls-7" d="M124.18,60.2V15.08H129V60.2Z" transform="translate(-21.82 -2.27)"/><path class="cls-7" d="M138.73,60.2v-31h4.85V35a15.42,15.42,0,0,1,3.77-4.61,8.06,8.06,0,0,1,5.31-1.9,6.82,6.82,0,0,1,3.05.65A7.91,7.91,0,0,1,158.06,31,11,11,0,0,1,160,35a14.92,14.92,0,0,1,3.75-4.67,7.93,7.93,0,0,1,5.2-1.87A7.43,7.43,0,0,1,174,30.49q2.29,2.06,2.29,7.12V60.2h-4.84V38.49c0-2.06-.38-3.46-1.12-4.2a3.45,3.45,0,0,0-2.5-1.12,6.5,6.5,0,0,0-3.59,1.25,18.13,18.13,0,0,0-4.32,5V60.2H155.1V38.49c0-2.08-.37-3.49-1.13-4.23a3.51,3.51,0,0,0-2.55-1.12,6.14,6.14,0,0,0-3.53,1.24,19.24,19.24,0,0,0-4.31,5V60.2Z" transform="translate(-21.82 -2.27)"/><path class="cls-7" d="M205.63,59.2a26.46,26.46,0,0,1-8.46,1.72,11.71,11.71,0,0,1-9.93-4.87,18.8,18.8,0,0,1-3.62-11.51,21.84,21.84,0,0,1,1.6-8.31,13.25,13.25,0,0,1,4.18-5.86,9.87,9.87,0,0,1,6.07-1.91A8.77,8.77,0,0,1,203,32.31c1.87,2.58,2.8,6.42,2.8,11.55l0,1.71H188.56a18,18,0,0,0,1.56,6.35,9,9,0,0,0,3.07,3.47,8.76,8.76,0,0,0,4.87,1.24,15.09,15.09,0,0,0,3-.3,28.14,28.14,0,0,0,4.58-1.58ZM188.79,41.34h12.12q0-4.65-1.61-6.65a5,5,0,0,0-4.11-2,5.24,5.24,0,0,0-4.47,2.15A12.43,12.43,0,0,0,188.79,41.34Z" transform="translate(-21.82 -2.27)"/><path class="cls-7" d="M212.8,59.12V54c3.17,1.82,5.92,2.74,8.26,2.74a4.83,4.83,0,0,0,3.46-1.32,4.35,4.35,0,0,0,1.39-3.29,4.67,4.67,0,0,0-.69-2.4A7.45,7.45,0,0,0,222,47.3l-2.83-1.4a12.25,12.25,0,0,1-4.78-3.66,8.36,8.36,0,0,1-1.5-5.06,8.76,8.76,0,0,1,2.34-6.24q2.34-2.48,6.93-2.48a26.82,26.82,0,0,1,5.55.71l1,.23v4.71a21,21,0,0,0-6.5-1.42,4.73,4.73,0,0,0-3.5,1.17,3.79,3.79,0,0,0-1.16,2.77,3.52,3.52,0,0,0,.79,2.26,7.57,7.57,0,0,0,2.75,2l2.34,1.15q4.71,2.31,6,4.58a9.81,9.81,0,0,1,1.28,4.92,9.69,9.69,0,0,1-1.19,4.71A8.4,8.4,0,0,1,226,59.69a10.87,10.87,0,0,1-5.17,1.23A23.59,23.59,0,0,1,212.8,59.12Z" transform="translate(-21.82 -2.27)"/><path class="cls-8" d="M72.38,98.5V68.14h3.71V98.5Z" transform="translate(-21.82 -2.27)"/><path class="cls-8" d="M84.28,98.5v-31h4.85v5.81a15.05,15.05,0,0,1,4.29-4.82,8.79,8.79,0,0,1,5.07-1.7,6.86,6.86,0,0,1,5.51,2.5,10.43,10.43,0,0,1,2.12,6.94V98.5h-4.85V78a11.74,11.74,0,0,0-.49-4.26,3.74,3.74,0,0,0-1.38-1.58,3.42,3.42,0,0,0-1.89-.56,7.47,7.47,0,0,0-3.87,1.28q-2.08,1.29-4.51,5.5V98.5Z" transform="translate(-21.82 -2.27)"/><path class="cls-8" d="M115.53,98.5v-31h4.84v5.81a15.05,15.05,0,0,1,4.29-4.82,8.82,8.82,0,0,1,5.08-1.7,6.87,6.87,0,0,1,5.51,2.5,10.43,10.43,0,0,1,2.11,6.94V98.5h-4.84V78a11.74,11.74,0,0,0-.49-4.26,3.74,3.74,0,0,0-1.38-1.58,3.42,3.42,0,0,0-1.89-.56,7.47,7.47,0,0,0-3.87,1.28c-1.39.86-2.89,2.69-4.52,5.5V98.5Z" transform="translate(-21.82 -2.27)"/><path class="cls-8" d="M157.41,99.21a11.9,11.9,0,0,1-6.63-1.82,12.13,12.13,0,0,1-4.47-5.72,22.12,22.12,0,0,1-1.65-8.7,22.88,22.88,0,0,1,1.51-8.4,12.22,12.22,0,0,1,4.36-5.85,11.88,11.88,0,0,1,6.88-2,12.09,12.09,0,0,1,6.64,1.8,12,12,0,0,1,4.47,5.72,22.37,22.37,0,0,1,1.64,8.7,22.83,22.83,0,0,1-1.53,8.45,12.27,12.27,0,0,1-4.37,5.83A11.74,11.74,0,0,1,157.41,99.21Zm0-4.23A6.31,6.31,0,0,0,163,91.85q2-3.13,2-8.88t-2-8.89a6.62,6.62,0,0,0-11.21,0q-2,3.11-2,8.89t2,8.88A6.29,6.29,0,0,0,157.4,95Z" transform="translate(-21.82 -2.27)"/><path class="cls-8" d="M183.25,98.5l-9.93-31h4.85l7.76,24.15,8.2-24.15h4.51l-10.55,31Z" transform="translate(-21.82 -2.27)"/><path class="cls-8" d="M217.75,94.55A17.94,17.94,0,0,1,213.43,98a8.64,8.64,0,0,1-4.18,1.17A7.9,7.9,0,0,1,203.92,97a8,8,0,0,1-2.47-6.34,9.59,9.59,0,0,1,3.44-7.56q3.45-3,11-3H217V76.4a7.52,7.52,0,0,0-.53-3.26,3.64,3.64,0,0,0-1.63-1.59,6.08,6.08,0,0,0-2.77-.57,16.35,16.35,0,0,0-8.35,2.74V69.06a22.17,22.17,0,0,1,9.34-2.31,10.92,10.92,0,0,1,4.39.87,7.11,7.11,0,0,1,3.2,2.75c.79,1.25,1.19,3.25,1.19,6V90.46a10.22,10.22,0,0,0,.32,3.16,2.7,2.7,0,0,0,.9,1.25,2.21,2.21,0,0,0,1.34.43,5.31,5.31,0,0,0,.93-.12l.35,3.12a7.37,7.37,0,0,1-3.64.91,4,4,0,0,1-2.56-1A6.21,6.21,0,0,1,217.75,94.55Zm-.71-3v-8l-1.58-.06a11.75,11.75,0,0,0-6.53,1.71,5.31,5.31,0,0,0-2.64,4.66,4.88,4.88,0,0,0,1.3,3.43,4,4,0,0,0,3,1.4,7.14,7.14,0,0,0,3.17-.79A13.91,13.91,0,0,0,217,91.5Z" transform="translate(-21.82 -2.27)"/></svg>